<svg xmlns="http://www.w3.org/2000/svg" viewBox="0 0 50 50">
	<path fill="#f5ba14" d="M 8 4 C 5.79 4 4 5.79 4 8 L 4 42 C 4 44.21 5.79 46 8 46 L 34.410156 46 L 46 34.410156 L 46 8 C 46 5.79 44.21 4 42 4 L 8 4 z M 25 11 C 29.96 11 34 15.04 34 20 C 34 23.46 32.06 26.550547 29 28.060547 L 29 36 L 27 36 L 27 38 L 23 38 L 23 36 L 21 36 L 21 28.060547 C 17.94 26.550547 16 23.46 16 20 C 16 19.71 16.009063 19.410859 16.039062 19.130859 C 16.259062 16.810859 17.339453 14.780313 18.939453 13.320312 C 20.539453 11.870312 22.67 11 25 11 z M 25 13 C 21.38 13 18.379297 15.720313 18.029297 19.320312 C 18.009297 19.540312 18 19.77 18 20 C 18 22.87 19.719141 25.410234 22.369141 26.490234 L 23 26.740234 L 23 30 L 27 30 L 27 26.740234 L 27.630859 26.490234 C 30.280859 25.410234 32 22.87 32 20 C 32 16.14 28.86 13 25 13 z M 23 32 L 23 34 L 27 34 L 27 32 L 23 32 z M 36 34 L 43.589844 34 L 34 43.589844 L 34 36 C 34 34.9 34.9 34 36 34 z"/>
</svg>
